Simulation
nRows=20
nColumns=15
endheader
time  TH_x TH_y TH_z SC_y  SC_z  SC_x  AC_y  AC_z  AC_x  GH_y  GH_z  GH_yy  EL_x  PS_y
0.0  0.000000  0.000000  0.000000  -29.462740461527265  -0.41281011383311306  -2.6306395101238618  50.6120558868629  7.786774457200172  -3.305040648594793  39.85331600293687  9.432846201125164  -10.310940044408113  22.7815339349924  0.000000
0.031  0.000000  0.000000  0.000000  -29.42354091188602  -0.3232929445452233  -2.36640125807229  50.39130068411871  7.775557723753967  -3.5383065230254624  39.78321593230166  9.566880549044324  -10.334472880528242  22.777398838806693  0.000000
0.062  0.000000  0.000000  0.000000  -29.29555819439144  -0.35011609111107733  -2.1788114046116824  50.28332429347863  7.695877878923596  -3.7900335384627444  39.76523163745917  9.64064469894117  -10.32007839788133  22.758816418930024  0.000000
0.093  0.000000  0.000000  0.000000  -29.331950939154392  -0.4185166537676526  -2.0097133494616073  50.23696814969688  7.559785036727965  -3.9862282959476376  39.787942366377486  9.719055254627001  -10.310512895868815  22.738562212283746  0.000000
0.124  0.000000  0.000000  0.000000  -29.352117309832575  -0.4987324557652372  -1.8865924305165154  50.220670141632134  7.425157060940292  -4.145521936892784  39.80544806074688  9.831831664336548  -10.356902788346698  22.660216319586965  0.000000
0.155  0.000000  0.000000  0.000000  -29.40900192833282  -0.589569776773649  -1.7839589085858762  50.23484632284408  7.307755198774575  -4.281705761691866  39.80924364457407  10.039952152901241  -10.446042625043784  22.53111023070754  0.000000
0.186  0.000000  0.000000  0.000000  -29.463982682038672  -0.6707288096866795  -1.697254096489338  50.245992043063026  7.190162984932629  -4.393408784103713  39.752090690401985  10.362037859254158  -10.607311115302215  22.376080836792436  0.000000
0.217  0.000000  0.000000  0.000000  -29.536663417552003  -0.7457833867797495  -1.619006234889209  50.274893213239075  7.078009859289486  -4.491833856053152  39.634338059534166  10.814857863875329  -10.820690851726065  22.191488016791094  0.000000
0.248  0.000000  0.000000  0.000000  -29.619272002691176  -0.8126436249820672  -1.542892864344201  50.2968866025687  6.962731586905489  -4.574017799245208  39.436164085356424  11.387279778839593  -11.091895733949277  21.99248803522213  0.000000
0.279  0.000000  0.000000  0.000000  -29.715108483502004  -0.8703791953718504  -1.4659533494464876  50.3303711702736  6.85230687296907  -4.6515067633481415  39.16630256334418  12.06950253395924  -11.397435667421188  21.781902806016973  0.000000
0.31  0.000000  0.000000  0.000000  -29.81401450294193  -0.9160871001235256  -1.382398529048465  50.35446662658925  6.754805076366178  -4.722273103586393  38.82640171080298  12.831070278836334  -11.716497671135382  21.57833091975579  0.000000
0.34099999999999997  0.000000  0.000000  0.000000  -29.91454948454712  -0.9493649756212877  -1.292898789018606  50.389676172560996  6.676385204334226  -4.786724136577885  38.412072033850016  13.659893477888092  -12.028948405946949  21.386953402431477  0.000000
0.372  0.000000  0.000000  0.000000  -30.01977059673621  -0.9747382123566501  -1.1941711701028939  50.44354195376813  6.6206974040984115  -4.833007956183061  37.895340889653575  14.539206709879075  -12.321379027891322  21.22885968691699  0.000000
0.403  0.000000  0.000000  0.000000  -30.13488276066184  -0.9975721975891437  -1.0849301636291344  50.544691214265576  6.58579249713823  -4.852371187137871  37.231031471683096  15.464678367151242  -12.5851104642994  21.119006016102038  0.000000
0.434  0.000000  0.000000  0.000000  -30.261982441959542  -1.0224071957777146  -0.9604949793568565  50.70102193620124  6.575344003665416  -4.842702555735689  36.38086253604559  16.42778366665443  -12.798903350090029  21.086672468966736  0.000000
0.46499999999999997  0.000000  0.000000  0.000000  -30.390349230255364  -1.0460160440199828  -0.8207211666994003  50.90801377711104  6.5908163307498375  -4.807536861467975  35.33832469304306  17.426652208225253  -12.937004527616313  21.137720477378007  0.000000
0.496  0.000000  0.000000  0.000000  -30.506345550743106  -1.0618525036442286  -0.6688385083341261  51.14698634708954  6.631034109090848  -4.753979186880408  34.144257083039264  18.468302025418215  -12.975329589021735  21.254940880193494  0.000000
0.527  0.000000  0.000000  0.000000  -30.593608306593136  -1.0618271954407268  -0.5099738036853187  51.3957803117567  6.689870060183409  -4.686135204144052  32.872269465669504  19.563604786860644  -12.913754576279592  21.394929185998137  0.000000
0.558  0.000000  0.000000  0.000000  -30.646137378783244  -1.0384012292414058  -0.34479934516913474  51.63940238308883  6.76019142910629  -4.6091055507645775  31.606599856399328  20.72221289258498  -12.780195477913848  21.519538801342435  0.000000
0.589  0.000000  0.000000  0.000000  -30.670009265186906  -0.985380842295836  -0.16812177790675  51.86668551424482  6.83946502913634  -4.5274797874877954  30.423143624259673  21.942750527949205  -12.624992456660568  21.61059925789027  0.000000
